<?xml version="1.0" standalone="no"?>
<!DOCTYPE svg PUBLIC "-//W3C//DTD SVG 20010904//EN"
 "http://www.w3.org/TR/2001/REC-SVG-20010904/DTD/svg10.dtd">
<svg version="1.0" xmlns="http://www.w3.org/2000/svg"
 width="307.000000pt" height="325.000000pt" viewBox="0 0 307.000000 325.000000"
 preserveAspectRatio="xMidYMid meet">

<g transform="translate(0.000000,325.000000) scale(0.100000,-0.100000)"
fill="#000000" stroke="none">
<path d="M1002 3168 c-24 -40 -36 -78 -25 -78 4 0 17 7 27 15 31 23 49 18 91
-25 49 -50 62 -40 41 32 -18 64 -41 88 -83 88 -25 0 -36 -7 -51 -32z"/>
<path d="M1180 3021 c-12 -24 -13 -71 -1 -71 5 0 12 6 15 13 3 6 2 -1 -1 -18
-6 -29 -5 -30 14 -12 27 24 38 22 13 -3 -22 -22 -27 -96 -10 -135 6 -13 7 -3
4 31 -4 32 -2 60 6 75 l13 23 24 -28 24 -28 -7 28 c-4 16 -11 38 -16 49 -7 14
-4 13 11 -5 32 -39 26 -2 -9 53 -32 51 -62 61 -80 28z"/>
<path d="M1353 2978 c-21 -24 -57 -88 -49 -88 3 0 -1 -15 -9 -33 -7 -17 -11
-44 -8 -60 8 -42 19 -40 15 3 -4 39 13 84 28 75 4 -3 12 9 16 27 5 27 8 29 13
14 6 -15 10 -11 25 22 26 58 8 82 -31 40z"/>
<path d="M1076 2945 c-4 -10 -2 -14 5 -9 8 4 9 -7 5 -37 -3 -28 -2 -35 3 -19
6 21 8 18 14 -26 4 -29 14 -57 22 -64 12 -10 15 -9 15 4 0 9 -4 16 -10 16 -5
0 -10 7 -10 15 0 8 5 15 10 15 6 0 10 -5 10 -12 0 -6 2 -9 5 -6 8 8 -33 114
-49 127 -10 9 -15 8 -20 -4z"/>
<path d="M1257 2776 c-6 -15 1 -26 15 -26 4 0 8 9 8 20 0 23 -15 27 -23 6z"/>
<path d="M1332 2778 c-14 -14 -16 -28 -3 -28 9 0 24 30 18 36 -2 2 -9 -2 -15
-8z"/>
<path d="M1571 2751 c-7 -13 -8 -28 -1 -45 12 -34 40 -34 40 -1 0 14 -5 25
-11 25 -6 0 -9 -9 -6 -20 3 -11 1 -18 -4 -14 -11 7 -12 51 0 58 4 3 16 -3 26
-14 23 -25 25 -114 6 -182 -13 -46 -31 -65 -31 -33 0 8 -21 28 -47 46 -71 47
-133 109 -153 152 -15 32 -19 36 -30 22 -10 -12 -10 -15 1 -15 8 0 20 -14 27
-30 8 -17 39 -52 70 -78 109 -93 124 -110 117 -134 -11 -36 -39 -71 -84 -103
-36 -25 -51 -30 -102 -29 -109 1 -150 59 -179 251 -10 65 -16 120 -14 122 2 2
8 -8 15 -21 12 -27 66 -58 101 -58 22 0 22 1 4 18 -13 12 -20 14 -23 5 -4 -10
-10 -10 -26 -1 -27 14 -38 29 -32 45 6 17 -9 24 -56 29 -52 5 -55 -6 -31 -98
11 -40 23 -93 26 -118 17 -123 78 -213 162 -238 54 -16 80 -15 140 3 72 22
106 53 109 101 2 21 16 66 31 98 36 79 44 185 17 236 -21 41 -47 50 -62 21z
m-387 -58 c3 -21 11 -78 16 -127 6 -49 17 -105 25 -125 13 -32 13 -34 0 -16
-19 24 -30 65 -50 181 -9 49 -18 97 -21 107 -3 11 0 17 9 17 10 0 17 -14 21
-37z"/>
<path d="M2772 2648 c3 -7 20 -14 39 -14 33 -2 33 -2 4 4 -30 6 -29 6 10 12
l40 7 -48 2 c-35 1 -48 -3 -45 -11z"/>
<path d="M2883 2643 c9 -2 25 -2 35 0 9 3 1 5 -18 5 -19 0 -27 -2 -17 -5z"/>
<path d="M2500 2635 c0 -3 5 -15 10 -26 8 -15 7 -19 -5 -19 -8 0 -15 -4 -15
-10 0 -5 5 -10 11 -10 6 0 9 -9 6 -19 -4 -17 -2 -18 13 -8 25 15 66 -7 86 -45
21 -41 18 -48 -18 -37 -51 14 -63 12 -47 -7 26 -32 209 3 209 40 0 7 -10 22
-23 34 l-23 21 1 -25 c0 -33 -24 -49 -58 -40 -18 4 -29 15 -33 32 -6 22 0 32
31 59 42 38 40 68 -2 35 -35 -27 -75 -25 -112 6 -17 14 -31 23 -31 19z"/>
<path d="M1232 2599 c10 -58 35 -109 54 -109 14 0 15 3 6 12 -19 19 -14 31 13
26 13 -3 26 -1 27 3 2 5 16 2 32 -6 29 -15 66 -12 66 5 0 5 -13 24 -30 42 -16
18 -30 39 -30 48 0 12 -2 13 -9 1 -9 -14 -75 -12 -115 5 -17 7 -19 4 -14 -27z"/>
<path d="M2468 2512 c-22 -4 -23 -16 -3 -32 10 -8 19 -9 24 -4 14 14 -2 40
-21 36z"/>
<path d="M2660 2500 c0 -5 4 -10 9 -10 6 0 13 5 16 10 3 6 -1 10 -9 10 -9 0
-16 -4 -16 -10z"/>
<path d="M2749 2464 c-22 -25 -22 -26 -3 -16 12 6 24 18 28 27 8 21 3 19 -25
-11z"/>
<path d="M2440 2450 c11 -21 62 -60 78 -60 6 0 12 -19 14 -42 3 -34 5 -39 12
-23 5 11 26 36 49 56 l40 36 -53 1 c-36 1 -70 9 -102 26 -43 22 -47 23 -38 6z"/>
<path d="M181 2422 c71 -37 92 -45 83 -31 -8 13 -103 59 -123 59 -7 0 11 -13
40 -28z"/>
<path d="M538 2424 c-27 -14 -38 -34 -18 -34 5 0 7 -8 3 -17 -3 -10 -4 -16 -2
-13 37 44 42 53 29 46 -8 -4 -4 2 10 13 29 24 17 27 -22 5z"/>
<path d="M2665 2430 l-20 -9 20 0 c11 0 29 4 40 9 l20 9 -20 0 c-11 0 -29 -4
-40 -9z"/>
<path d="M105 2370 c17 -5 52 -21 78 -36 27 -14 50 -24 53 -21 10 9 -88 59
-124 63 -36 4 -36 4 -7 -6z"/>
<path d="M2409 2296 c19 -20 53 -43 76 -52 38 -14 46 -14 78 0 21 8 37 16 37
18 0 2 -30 3 -66 4 -56 1 -71 5 -112 34 l-47 32 34 -36z"/>
<path d="M424 2270 c9 -13 16 -32 16 -42 0 -46 -98 -49 -168 -4 -58 36 -53 19
6 -21 70 -48 96 -55 147 -42 55 14 83 42 65 64 -7 8 -17 15 -23 15 -6 0 -22
12 -35 28 -20 23 -21 24 -8 2z"/>
<path d="M1924 2277 c25 -76 38 -156 40 -247 1 -98 3 -106 26 -128 32 -30 139
-82 165 -81 12 0 7 5 -15 12 -35 11 -35 11 30 17 78 8 130 33 189 91 51 51
101 125 101 151 0 16 -5 15 -57 -9 -45 -20 -73 -26 -124 -26 -97 1 -157 33
-269 146 -51 51 -90 84 -86 74z"/>
<path d="M90 2274 c0 -2 30 -18 68 -34 92 -43 168 -97 183 -131 7 -18 9 -48 5
-78 -5 -39 -3 -50 10 -55 26 -10 29 -7 30 27 1 64 14 107 32 107 28 0 81 38
102 72 27 45 25 59 -2 18 -26 -37 -73 -58 -134 -59 -40 -1 -60 9 -141 69 -27
19 -153 73 -153 64z"/>
<path d="M2576 2127 c-25 -73 -68 -136 -131 -196 -61 -58 -113 -84 -207 -106
-58 -13 -59 -14 -13 -9 118 14 237 90 305 195 36 56 77 155 68 164 -2 2 -12
-19 -22 -48z"/>
<path d="M1640 2085 c-84 -17 -147 -39 -240 -82 -66 -30 -84 -34 -145 -32
-272 8 -272 8 -420 -76 -89 -51 -129 -68 -190 -82 -62 -15 -149 -15 -199 -2
-68 19 -80 -31 -19 -79 62 -47 175 -42 298 13 70 31 179 65 208 65 l32 -1 -39
-20 -38 -21 25 -26 c14 -15 42 -54 61 -86 37 -61 43 -67 26 -22 l-9 25 34 -20
c19 -11 47 -35 63 -53 15 -18 36 -35 46 -39 18 -7 56 12 56 28 0 11 35 50 74
80 14 11 25 25 26 30 0 11 54 56 85 72 11 5 31 9 45 8 14 0 28 4 32 10 5 6 8
2 8 -9 0 -16 2 -17 18 -5 9 7 14 9 10 5 -4 -5 -3 -15 4 -23 6 -7 8 -16 5 -20
-4 -3 -2 -12 4 -20 9 -10 8 -13 -1 -13 -10 0 -10 -3 -1 -14 9 -11 10 -20 1
-36 -6 -11 -8 -26 -4 -32 4 -7 3 -8 -4 -4 -11 6 -18 -19 -13 -46 0 -5 -3 -8
-9 -8 -5 0 -10 -9 -10 -20 0 -11 -4 -20 -10 -20 -5 0 -10 -6 -10 -14 0 -17
-155 -206 -185 -225 -12 -8 -30 -27 -39 -43 -10 -15 -22 -28 -27 -28 -6 0 -7
-5 -3 -11 13 -21 -60 24 -87 54 -15 17 -34 52 -40 79 -12 44 -14 47 -30 32
-15 -14 -33 -118 -19 -109 3 2 12 -11 20 -28 21 -49 25 -12 5 54 -14 46 -16
62 -7 71 9 9 12 6 12 -13 0 -33 71 -132 118 -165 29 -20 32 -24 12 -19 -14 4
-44 21 -67 37 l-43 29 0 -49 c0 -62 -18 -89 -48 -73 -12 6 -22 8 -22 4 0 -4
-7 2 -15 13 -20 26 -19 51 6 93 l21 36 -26 -30 c-32 -38 -33 -68 -1 -124 14
-23 25 -47 25 -51 0 -15 -112 -131 -157 -161 -125 -86 -358 -107 -483 -44 -28
14 -87 60 -131 102 -43 42 -79 73 -79 69 0 -42 98 -136 191 -183 157 -79 296
-83 469 -13 95 38 167 74 270 133 l35 21 -19 -22 c-10 -12 -44 -38 -75 -59
-73 -49 -86 -62 -34 -33 46 25 182 128 280 212 36 31 82 60 110 69 43 14 49
20 63 60 8 24 19 51 24 59 5 8 -9 -2 -30 -22 -35 -33 -80 -58 -104 -58 -19 0
7 37 60 85 74 67 67 62 151 135 230 201 295 321 315 586 6 83 5 90 -15 108
-28 25 -113 30 -201 11z m-225 -935 c-3 -5 -12 -10 -18 -10 -7 0 -6 4 3 10 19
12 23 12 15 0z"/>
<path d="M495 1969 c-37 -23 -102 -25 -153 -4 -34 15 -36 15 -21 0 39 -40 140
-37 191 5 29 24 22 24 -17 -1z"/>
<path d="M1951 1854 c0 -11 3 -14 6 -6 3 7 2 16 -1 19 -3 4 -6 -2 -5 -13z"/>
<path d="M1941 1814 c0 -11 3 -14 6 -6 3 7 2 16 -1 19 -3 4 -6 -2 -5 -13z"/>
<path d="M1912 1731 c-37 -96 -97 -179 -206 -286 -55 -55 -85 -87 -66 -72 63
51 172 161 202 205 36 53 101 188 96 202 -1 5 -13 -17 -26 -49z"/>
<path d="M848 1744 c-38 -20 -36 -28 2 -9 17 9 30 18 30 20 0 7 -1 6 -32 -11z"/>
<path d="M767 1696 c-48 -29 -61 -43 -22 -23 31 16 74 46 65 46 -3 0 -22 -10
-43 -23z"/>
<path d="M232 1118 c-7 -7 -12 -19 -12 -28 0 -13 7 -15 30 -12 40 6 105 -34
164 -99 25 -28 46 -55 46 -61 0 -5 5 -6 11 -3 6 4 9 0 7 -11 -2 -13 4 -20 20
-22 22 -3 21 -1 -14 50 -66 95 -107 140 -153 169 -48 31 -80 36 -99 17z"/>
<path d="M616 643 c75 -103 91 -120 139 -149 42 -24 125 -57 125 -48 0 2 -18
11 -40 20 -22 9 -38 20 -35 24 5 8 -95 137 -103 131 -7 -6 -91 82 -86 91 3 4
-2 8 -11 8 -13 0 -14 -4 -5 -22 l11 -23 -20 23 c-42 49 -29 18 25 -55z"/>
<path d="M928 433 c7 -3 16 -2 19 1 4 3 -2 6 -13 5 -11 0 -14 -3 -6 -6z"/>
<path d="M971 426 c2 -2 22 -6 44 -9 28 -5 34 -4 20 3 -19 8 -73 14 -64 6z"/>
<path d="M1120 410 c12 -8 12 -10 -5 -10 -11 0 7 -11 39 -25 74 -30 90 -46
135 -132 20 -37 41 -68 46 -68 6 -1 32 -15 59 -32 68 -45 93 -48 204 -24 53
11 108 22 122 24 14 2 5 5 -20 6 -25 0 -79 -6 -120 -15 -41 -9 -92 -13 -112
-11 -42 6 -92 38 -110 70 -11 21 -10 21 8 7 18 -14 18 -14 3 5 -9 11 -20 31
-24 43 -4 13 -13 31 -21 40 -8 10 -26 31 -39 48 -14 18 -44 41 -67 51 -47 22
-124 40 -98 23z m37 -16 c-3 -3 -12 -4 -19 -1 -8 3 -5 6 6 6 11 1 17 -2 13 -5z
m173 -194 c6 -11 8 -20 6 -20 -3 0 -10 9 -16 20 -6 11 -8 20 -6 20 3 0 10 -9
16 -20z"/>
<path d="M1068 403 c7 -3 16 -2 19 1 4 3 -2 6 -13 5 -11 0 -14 -3 -6 -6z"/>
<path d="M1698 123 c6 -2 18 -2 25 0 6 3 1 5 -13 5 -14 0 -19 -2 -12 -5z"/>
<path d="M1778 113 c7 -3 16 -2 19 1 4 3 -2 6 -13 5 -11 0 -14 -3 -6 -6z"/>
<path d="M1818 103 c7 -3 16 -2 19 1 4 3 -2 6 -13 5 -11 0 -14 -3 -6 -6z"/>
<path d="M1483 83 c9 -2 25 -2 35 0 9 3 1 5 -18 5 -19 0 -27 -2 -17 -5z"/>
<path d="M1893 83 c9 -2 23 -2 30 0 6 3 -1 5 -18 5 -16 0 -22 -2 -12 -5z"/>
</g>
</svg>
